<?xml version="1.0" encoding="iso-8859-1"?>
<!-- Generator: Adobe Illustrator 18.0.0, SVG Export Plug-In . SVG Version: 6.00 Build 0)  -->
<!DOCTYPE svg PUBLIC "-//W3C//DTD SVG 1.1//EN" "http://www.w3.org/Graphics/SVG/1.1/DTD/svg11.dtd">
<svg version="1.1" id="Capa_1" xmlns="http://www.w3.org/2000/svg" xmlns:xlink="http://www.w3.org/1999/xlink" x="0px" y="0px"
	 viewBox="0 0 374.473 374.473" style="enable-background:new 0 0 374.473 374.473;" xml:space="preserve">
<g>
	<g>
		<path d="M353.419,81.933c0-11.559-4.008-21.07-11.59-27.506c-7.328-6.22-17.598-9.373-30.525-9.373
			c-19.431,0-44.607,7.123-73.229,20.63C226.96,26.915,209.849,0,187.235,0c-22.611,0-39.723,26.915-50.839,65.683
			c-28.622-13.506-53.799-20.629-73.229-20.629c-12.926,0-23.195,3.153-30.523,9.373c-7.582,6.436-11.59,15.947-11.59,27.506
			c0,27.011,21.287,65.344,57.063,105.304c-35.776,39.959-57.063,78.294-57.063,105.305c0,11.559,4.008,21.07,11.59,27.505
			c7.328,6.22,17.598,9.374,30.524,9.374c19.431,0,44.607-7.123,73.228-20.629c11.116,38.767,28.228,65.682,50.839,65.682
			c22.613,0,39.725-26.916,50.84-65.684c28.621,13.506,53.799,20.629,73.229,20.631c0.003,0,0.005,0,0.008,0
			c12.922,0,23.189-3.154,30.517-9.374c7.583-6.435,11.591-15.946,11.591-27.505c0-27.011-21.287-65.346-57.065-105.305
			C332.13,147.277,353.418,108.943,353.419,81.933z M311.305,60.054c9.272,0,16.276,1.954,20.817,5.809
			c4.236,3.597,6.297,8.854,6.297,16.07c-0.001,22.66-20.076,57.668-52.395,94.143c-10.565-11.05-22.174-22.154-34.693-33.113
			c-1.816-22.01-4.98-43.367-9.45-62.572C268.728,67.415,292.979,60.054,311.305,60.054z M234.77,225.983
			c-15.613,13.252-31.643,25.413-47.534,36.2c-15.892-10.787-31.923-22.948-47.536-36.2c-0.715-0.606-1.424-1.216-2.135-1.824
			c-0.82-11.999-1.245-24.355-1.245-36.923s0.425-24.924,1.245-36.924c0.711-0.607,1.42-1.217,2.135-1.823
			c15.613-13.252,31.644-25.413,47.535-36.201c15.893,10.788,31.924,22.949,47.537,36.201c0.714,0.607,1.424,1.215,2.133,1.823
			c0.821,12,1.246,24.355,1.246,36.924c0,12.567-0.425,24.924-1.246,36.923C236.196,224.768,235.485,225.377,234.77,225.983z
			 M235.008,245.271c-1.661,14.797-3.962,28.842-6.86,41.815c-8.941-4.796-18.1-10.167-27.355-16.024
			C212.302,263.061,223.756,254.426,235.008,245.271z M173.682,271.063c-9.257,5.859-18.415,11.228-27.356,16.025
			c-2.898-12.973-5.2-27.02-6.861-41.816C150.716,254.426,162.171,263.061,173.682,271.063z M121.808,210.102
			c-8.158-7.572-15.892-15.227-23.128-22.865c7.236-7.64,14.97-15.293,23.128-22.865c-0.321,7.621-0.487,15.264-0.487,22.865
			C121.32,194.838,121.486,202.48,121.808,210.102z M139.464,129.2c1.662-14.796,3.963-28.842,6.861-41.815
			c8.941,4.797,18.099,10.166,27.355,16.025C162.17,111.41,150.716,120.047,139.464,129.2z M200.791,103.41
			c9.257-5.859,18.415-11.229,27.355-16.025c2.899,12.973,5.2,27.02,6.86,41.815C223.755,120.046,212.302,111.41,200.791,103.41z
			 M252.663,164.37c8.16,7.572,15.893,15.227,23.129,22.866c-7.236,7.639-14.969,15.293-23.129,22.865
			c0.322-7.622,0.488-15.264,0.488-22.865C253.151,179.635,252.985,171.992,252.663,164.37z M187.235,15
			c11.74,0,24.515,17.743,34.174,47.463c1.051,3.233,2.055,6.575,3.012,10.012c-12.258,6.405-24.715,13.725-37.185,21.828
			c-12.47-8.103-24.929-15.423-37.186-21.829c0.959-3.437,1.962-6.777,3.013-10.011C162.722,32.743,175.497,15,187.235,15z
			 M36.054,81.933c0-7.218,2.059-12.474,6.296-16.07c4.542-3.854,11.546-5.809,20.817-5.809c18.326,0,42.577,7.361,69.424,20.337
			c-4.469,19.205-7.633,40.563-9.449,62.572c-12.52,10.959-24.131,22.063-34.693,33.114
			C56.128,139.601,36.054,104.594,36.054,81.933z M63.168,314.42c-9.272,0-16.276-1.955-20.817-5.81
			c-4.236-3.597-6.297-8.852-6.297-16.069c0-22.66,20.074-57.669,52.394-94.146c10.564,11.051,22.174,22.155,34.693,33.113
			c1.815,22.012,4.98,43.369,9.449,62.574C105.745,307.059,81.493,314.42,63.168,314.42z M187.235,359.473
			c-11.738,0-24.514-17.742-34.173-47.461c-1.051-3.234-2.055-6.576-3.013-10.012c12.258-6.406,24.717-13.727,37.188-21.83
			c12.469,8.104,24.927,15.422,37.186,21.828c-0.959,3.438-1.963,6.779-3.014,10.014
			C211.751,341.73,198.975,359.473,187.235,359.473z M338.419,292.541c0,7.217-2.061,12.473-6.297,16.069
			c-4.541,3.855-11.543,5.81-20.811,5.81c-0.002,0-0.004,0-0.006,0c-18.327-0.002-42.578-7.363-69.424-20.339
			c4.469-19.205,7.633-40.563,9.449-62.573c12.52-10.958,24.129-22.063,34.693-33.113
			C318.344,234.872,338.419,269.881,338.419,292.541z"/>
		<path d="M187.235,160.82c-14.565,0-26.416,11.851-26.416,26.416s11.851,26.416,26.416,26.416
			c14.566,0,26.416-11.851,26.416-26.416S201.802,160.82,187.235,160.82z M187.235,198.652c-6.295,0-11.416-5.121-11.416-11.416
			c0-6.295,5.121-11.416,11.416-11.416c6.295,0,11.416,5.121,11.416,11.416C198.651,193.531,193.53,198.652,187.235,198.652z"/>
	</g>
</g>
<g>
</g>
<g>
</g>
<g>
</g>
<g>
</g>
<g>
</g>
<g>
</g>
<g>
</g>
<g>
</g>
<g>
</g>
<g>
</g>
<g>
</g>
<g>
</g>
<g>
</g>
<g>
</g>
<g>
</g>
</svg>
